<svg width="25" height="19" viewBox="0 0 25 19" fill="none" xmlns="http://www.w3.org/2000/svg">
    <path d="M10.5229 18.36L10.2629 18.107L10.25 18.095L8.19495 16.095L7.54297 15.462L0.865967 8.97903C0.75211 8.86992 0.661505 8.73889 0.599609 8.59384C0.537714 8.4488 0.505737 8.29274 0.505737 8.13504C0.505737 7.97734 0.537714 7.82125 0.599609 7.67621C0.661505 7.53116 0.75211 7.40013 0.865967 7.29102L3.29993 4.92703C3.5338 4.70267 3.84535 4.57739 4.16943 4.57739C4.49352 4.57739 4.80507 4.70267 5.03894 4.92703L11.125 10.836L21.8319 0.436035C21.9922 0.282266 22.2058 0.196411 22.428 0.196411C22.6501 0.196411 22.8636 0.282266 23.0239 0.436035C23.4924 0.88508 23.8651 1.42424 24.1198 2.02109C24.3744 2.61794 24.5057 3.26013 24.5057 3.90903C24.5057 4.55793 24.3744 5.20012 24.1198 5.79697C23.8651 6.39381 23.4924 6.93297 23.0239 7.38202L14.429 15.727L11.9939 18.091L11.7209 18.356C11.5601 18.5115 11.3447 18.5977 11.121 18.596C10.8985 18.5983 10.6839 18.5136 10.5229 18.36Z" fill="white" />
</svg>
    